<?xml version="1.0" encoding="utf-8"?>
<!-- Generator: Adobe Illustrator 27.8.0, SVG Export Plug-In . SVG Version: 6.00 Build 0)  -->
<svg version="1.1" id="COG_Logo" xmlns="http://www.w3.org/2000/svg" xmlns:xlink="http://www.w3.org/1999/xlink" x="0px" y="0px"
	 viewBox="0 0 1907.2 323.2" style="enable-background:new 0 0 1907.2 323.2;" xml:space="preserve">
<style type="text/css">
	.st0{fill:#761953;}
	.st1{fill:#8A0050;}
</style>
<path class="st0" d="M1336,120.4c-4.1,3.5-9.2,5.4-14.6,5.5c-13.5,0-24.4-12.3-24.4-27.4s10.9-27.4,24.4-27.4
	c5.3,0,10.4,1.9,14.5,5.3l17.3-33.1c-9.7-5.6-20.6-8.5-31.8-8.5c-35.1,0-63.7,28.6-63.7,63.7s28.6,63.7,63.7,63.7
	c11.2,0,22.2-3,32-8.6L1336,120.4z"/>
<path class="st0" d="M1419.9,125.7c-13.5,0-24.4-12.3-24.4-27.4c0-15.1,10.9-27.4,24.4-27.4c13.5,0,24.4,12.3,24.4,27.4
	C1444.3,113.4,1433.3,125.7,1419.9,125.7 M1419.9,34.6c-35.1,0-63.7,28.6-63.7,63.7s28.6,63.7,63.7,63.7s63.7-28.6,63.7-63.7
	S1455,34.6,1419.9,34.6"/>
<path class="st0" d="M1528.5,203.1L1528.5,203.1L1528.5,203.1L1528.5,203.1z"/>
<path class="st0" d="M1559.8,125.6c-13.5,0-24.4-12.3-24.4-27.4c0-15.1,10.9-27.4,24.4-27.4c13.5,0,24.4,12.3,24.4,27.4
	C1584.2,113.3,1573.3,125.6,1559.8,125.6 M1620.9,168.7c-5.4-5.8-12-10.4-19.4-13.3c-3.2-1.2-6.6-1.9-10-2
	c30.5-17.5,41.1-56.3,23.6-86.8c-0.9-1.6-1.9-3.1-2.9-4.6l12.4-27.3h-59.6c-1.7-0.1-3.4-0.2-5.1-0.2c-35.1,0-63.7,28.6-63.7,63.7
	c0,18.6,8.1,36.2,22.2,48.3l-9.7,21.3c23.1,23.8,50.8,23.8,69.8,23.8c0.6,0,1.2,0,1.8,0c8.9,0.2,16,6.6,16,14.6
	c0,7.4-6.2,13.5-14.1,14.5l8,37.8c10.8-2.7,20.6-8.1,28.6-15.9c2.7-2.6,5-5.5,7-8.6l0,0c6-8.9,9.2-19.4,9.2-30.1
	C1634.9,191.2,1629.8,178.3,1620.9,168.7"/>
<path class="st0" d="M1681.8,85.9c6,0,8.2,1.7,9.9,2.7l-1.2,2.7c-1.4-0.9-3.6-2.5-8.7-2.5c-6.6,0-12.1,3.3-12.1,10.5
	c0,7.4,4.8,10.7,11.5,10.7c5.3,0,8.3-1.7,9.3-2.4l1.1,2.7c-1.1,0.8-4.5,2.7-10.5,2.7c-8.4,0-14.6-4-14.6-13.5
	C1666.5,90.2,1673.7,85.9,1681.8,85.9"/>
<path class="st0" d="M1698.7,96.3L1698.7,96.3c0.9-0.8,3.1-2.6,7.4-2.6c4.8,0,8.1,2.5,8.1,8.5v10.5h-3.2v-9.7c0-4.7-2.2-6.4-5.9-6.4
	c-3.2,0-5.4,1.9-6.4,2.9v13.2h-3.2V85.6h3.2L1698.7,96.3z"/>
<path class="st0" d="M1730,96.6h-0.9c-3.6,0-5.5,1.8-6.4,3.8v12.1h-3.2V94h3v3.5h0.1c0.8-1.8,2.8-3.8,7.4-3.8V96.6z"/>
<path class="st0" d="M1736.6,112.5h-3.2V94.1h3.2V112.5z M1736.7,90.8h-3.4v-3.5h3.4L1736.7,90.8z"/>
<path class="st0" d="M1754.7,98.2c-1.8-1.2-3.9-1.8-6-1.8c-2.9,0-4.4,0.8-4.4,2.2s0.6,2.1,5.1,3c4.5,0.9,7,2.4,7,5.8
	c0,3.5-2.7,5.6-7.6,5.6c-4.5,0-6.9-1.5-7.8-2.2l1.2-2.8c0.9,0.7,2.8,2.2,6.6,2.2c3.2,0,4.6-1.1,4.6-2.4c0-1.3-0.6-2.4-5.1-3.3
	s-6.9-2.2-6.9-5.7c0-3,2.8-5.2,7.4-5.2c4,0,6.1,1.2,7.2,1.9L1754.7,98.2z"/>
<path class="st0" d="M1771.2,96.7h-6.3v8.7c0,3.6,1.1,4.6,3.9,4.6c0.8,0,1.6-0.1,2.4-0.4v2.7c-0.4,0.2-1.4,0.5-3.1,0.5
	c-3.6,0-6.3-1.5-6.3-7.2v-8.9h-3V94h3v-4.2h3.2v4.2h6.3L1771.2,96.7L1771.2,96.7z"/>
<path class="st0" d="M1776.4,101.8h12.5c-0.1-3.3-2.3-5.4-5.9-5.4C1779.4,96.4,1776.7,98.2,1776.4,101.8 M1783.2,93.6
	c5.6,0,8.8,3.5,8.8,9.1v1.6h-15.5c0.4,3.6,2.8,5.7,7.4,5.7c3.9,0,6.3-1.6,6.9-2.1l1.1,2.4c-0.9,0.7-3.7,2.6-8.7,2.6
	c-6.2,0-9.9-3.7-9.9-9.8C1773.1,97.1,1777.7,93.6,1783.2,93.6"/>
<rect x="1796.5" y="85.6" class="st0" width="3.2" height="26.9"/>
<path class="st0" d="M1808.6,112.5h-3.2V94.1h3.2V112.5z M1808.8,90.8h-3.4v-3.5h3.4V90.8z"/>
<path class="st0" d="M1818,90.8h-3.4v-3.5h3.4V90.8z M1817.9,113.6c0,5.2-2.5,6.8-6.3,6.8c-0.8,0-1.7-0.1-2.5-0.4v-2.7
	c0.7,0.2,1.4,0.3,2.1,0.3c2.5,0,3.5-1.1,3.5-4.3V94.1h3.2L1817.9,113.6L1817.9,113.6z"/>
<polygon class="st0" points="1838,112.5 1830,104.2 1826.8,104.2 1826.8,112.5 1823.6,112.5 1823.6,85.6 1826.8,85.6 1826.8,101.3 
	1830.3,101.3 1837.4,94.1 1841.6,94.1 1833,102.9 1842.3,112.5 "/>
<path class="st0" d="M1846.2,101.8h12.5c-0.1-3.3-2.3-5.4-5.9-5.4S1846.5,98.2,1846.2,101.8 M1853,93.6c5.6,0,8.8,3.5,8.8,9.1v1.6
	h-15.5c0.4,3.6,2.8,5.7,7.4,5.7c3.9,0,6.3-1.6,6.9-2.1l1.1,2.4c-0.9,0.7-3.7,2.6-8.7,2.6c-6.2,0-9.9-3.7-9.9-9.8
	C1842.9,97.1,1847.5,93.6,1853,93.6"/>
<path class="st0" d="M1681.2,134.3c-6.9,0-11.5,4-11.5,10.6c0,6.6,4.7,10.6,11.5,10.6s11.5-4,11.5-10.6S1688.1,134.3,1681.2,134.3
	 M1681.2,158.5c-8.8,0-14.7-5-14.7-13.5s5.9-13.5,14.8-13.5s14.7,5,14.7,13.5S1690,158.5,1681.2,158.5"/>
<path class="st0" d="M1703.1,142L1703.1,142c0.9-0.9,3.2-2.9,7.5-2.9c4.8,0,8.1,2.5,8.1,8.5v10.5h-3.2v-9.7c0-4.7-2.2-6.4-5.9-6.4
	c-3.2,0-5.4,1.9-6.4,2.9V158h-3.2v-18.5h3L1703.1,142L1703.1,142z"/>
<path class="st0" d="M1732.9,155.6c4.1,0,5.7-1.8,6.5-2.8v-7.9c-0.9-1.1-2.6-3-6.4-3c-3.9,0-6.9,2.3-6.9,6.8
	C1726.1,153.3,1729,155.6,1732.9,155.6 M1742.6,158.1h-3v-2.4h-0.1c-0.7,0.8-2.6,2.9-7.3,2.9c-5.3,0-9.3-3.3-9.3-9.8
	c0-6.3,4.5-9.6,9.6-9.6c4.2,0,6.1,1.7,6.9,2.5h0.1v-10.5h3.2L1742.6,158.1z"/>
<path class="st0" d="M1750,147.3h12.5c-0.1-3.3-2.3-5.4-5.9-5.4S1750.3,143.8,1750,147.3 M1756.7,139.1c5.6,0,8.8,3.5,8.8,9.1v1.6
	H1750c0.4,3.6,2.8,5.7,7.4,5.7c3.9,0,6.3-1.6,6.9-2.1l1.1,2.4c-0.9,0.7-3.7,2.6-8.7,2.6c-6.2,0-9.9-3.7-9.9-9.8
	C1746.7,142.6,1751.3,139.1,1756.7,139.1"/>
<path class="st0" d="M1780.3,142.1h-0.9c-3.6,0-5.5,1.8-6.4,3.8v12.1h-3.2v-18.5h3v3.5h0.1c0.8-1.8,2.8-3.8,7.4-3.8L1780.3,142.1z"
	/>
<polygon class="st0" points="1806.6,158.1 1803.6,158.1 1797.1,143.7 1797,143.7 1790.5,158.1 1787.5,158.1 1781.6,139.6 
	1784.9,139.6 1789.2,153.8 1789.3,153.8 1795.7,139.6 1798.4,139.6 1804.8,153.8 1804.9,153.8 1809.2,139.6 1812.5,139.6 "/>
<path class="st0" d="M1819.3,158.1h-3.2v-18.5h3.2V158.1z M1819.4,136.3h-3.4v-3.5h3.4V136.3z"/>
<path class="st0" d="M1828.6,136.3h-3.4v-3.5h3.4V136.3z M1828.5,159.2c0,5.2-2.5,6.8-6.3,6.8c-0.8,0-1.7-0.1-2.5-0.4v-2.7
	c0.7,0.2,1.4,0.3,2.1,0.3c2.5,0,3.5-1.1,3.5-4.3v-19.3h3.2L1828.5,159.2L1828.5,159.2z"/>
<path class="st0" d="M1846.7,143.7c-1.8-1.2-3.9-1.8-6-1.8c-2.9,0-4.4,0.8-4.4,2.2c0,1.4,0.6,2.1,5.1,3s7,2.4,7,5.8
	c0,3.5-2.7,5.6-7.6,5.6c-4.5,0-6.9-1.5-7.8-2.2l1.2-2.8c0.9,0.7,2.8,2.2,6.6,2.2c3.2,0,4.6-1.1,4.6-2.4c0-1.3-0.6-2.4-5.1-3.3
	s-6.9-2.2-6.9-5.7c0-3,2.8-5.2,7.4-5.2c4,0,6.1,1.2,7.2,1.9L1846.7,143.7z"/>
<path class="st0" d="M1682.3,177c5.8,0,8.5,1.5,10.2,2.7l-1.3,2.7c-1.6-1.1-4.1-2.5-8.9-2.5c-6.6,0-12.6,3.4-12.6,10.6
	c0,7.3,5.3,10.6,12.4,10.6c2.4,0,4.8-0.4,7.1-1.1v-7.4h-6.3v-2.9h9.4v11.8c-1.1,0.6-4.4,2.5-10.7,2.5c-8.6,0-15.3-3.9-15.3-13.4
	C1666.4,181.3,1674,176.9,1682.3,177"/>
<path class="st0" d="M1708.2,187.7h-0.9c-3.6,0-5.5,1.8-6.4,3.8v12.1h-3.2v-18.5h3v3.5h0.1c0.8-1.8,2.8-3.8,7.4-3.8V187.7z"/>
<path class="st0" d="M1719.4,187.5c-4.1,0-7.2,2.4-7.2,6.9c0,4.5,3.1,6.8,7.2,6.8s7.2-2.3,7.2-6.8
	C1726.7,189.8,1723.6,187.5,1719.4,187.5 M1719.4,204c-5.5,0-10.4-3.2-10.4-9.7c0-6.5,4.9-9.7,10.4-9.7s10.5,3.1,10.5,9.7
	S1724.9,204,1719.4,204"/>
<path class="st0" d="M1736.1,192.8h12.5c-0.1-3.3-2.3-5.4-5.9-5.4C1739.2,187.4,1736.5,189.3,1736.1,192.8 M1742.9,184.7
	c5.6,0,8.8,3.5,8.8,9.1v1.6h-15.5c0.4,3.6,2.8,5.7,7.4,5.7c3.9,0,6.3-1.6,6.9-2.1l1.1,2.4c-0.9,0.7-3.7,2.6-8.7,2.6
	c-6.2,0-9.9-3.7-9.9-9.8C1732.9,188.2,1737.5,184.7,1742.9,184.7"/>
<path class="st0" d="M1765.7,187.5c-3.6,0-5.8,1.9-6.5,3v7.9c0.8,1,2.7,2.9,6.3,2.9c4.3,0,6.8-2.3,6.8-6.8
	C1772.3,190,1769.8,187.5,1765.7,187.5 M1765.9,204c-4.2,0-5.9-1.7-6.7-2.4h0v9.5h-3.2v-26.1h3v2.4h0.1c0.8-0.9,3-2.9,7.5-2.9
	c5.2,0,8.9,3.5,8.9,9.6C1775.5,200.4,1771.6,204.1,1765.9,204"/>
<polygon class="st1" points="60.1,298.6 67.1,282.8 62.8,282.8 58.1,294.4 58,294.4 53.3,282.8 48.9,282.8 55.9,298.6 "/>
<path class="st1" d="M77.8,298.6V292c0-3-1.6-5.1-5.7-5.1c-3.2,0-5,1.2-5.9,1.8l1.2,2.5c0.6-0.5,2-1.3,4-1.3c1.9,0,2.6,0.7,2.6,1.9
	v0.1c-0.2,0-1.1-0.1-2.3-0.1c-3.4,0-5.6,1.2-5.6,3.5c0,2.2,1.4,3.5,4,3.5c2.6,0,3.7-1.1,4-1.6h0v1.3H77.8z M74,295.1
	c-0.2,0.3-0.9,1-2.5,1c-1.1,0-1.6-0.4-1.6-1s0.6-1,2.2-1c0.8,0,1.5,0,1.9,0L74,295.1L74,295.1z"/>
<path class="st1" d="M84.1,291.3c0.4-0.4,1.3-1.1,2.6-1.1c1.6,0,2.5,0.7,2.5,2.7v5.8h3.9V292c0-3.5-2.1-5-5-5c-2.3,0-3.6,1-4.2,1.6
	h0v-1.3h-3.7v11.4h3.8L84.1,291.3L84.1,291.3z"/>
<path class="st1" d="M110.8,298.9c3.9,0,5.9-1.2,6.8-1.8l-1.3-3.1c-0.7,0.4-2.2,1.4-5.1,1.4c-3.3,0-5.3-1.6-5.3-4.7
	c0-3.1,2.2-4.7,5.6-4.7c2.6,0,3.9,0.9,4.6,1.4l1.5-3c-1-0.7-2.6-1.9-6.2-1.9c-5.2,0-9.6,2.8-9.6,8.3
	C101.8,296.3,105.5,298.9,110.8,298.9z"/>
<path class="st1" d="M127.2,298.9c5.8,0,9.3-3.2,9.3-8.2c0-5-3.4-8.2-9.3-8.2c-5.8,0-9.3,3.2-9.3,8.2
	C117.9,295.7,121.3,298.9,127.2,298.9z M127.2,285.9c3.2,0,5.2,1.8,5.2,4.7c0,2.9-2,4.7-5.1,4.7c-3.2,0-5.2-1.8-5.2-4.7
	C122,287.8,124,285.9,127.2,285.9z"/>
<path class="st1" d="M147.4,298.9c3.9,0,5.8-1.2,6.7-1.8v-7.7h-6.9v3h3.3v2.5c-0.8,0.2-1.7,0.3-2.8,0.3c-3.5,0-5.7-1.6-5.7-4.8
	c0-3.1,2.5-4.7,5.8-4.7c2.7,0,4,0.8,4.9,1.5l1.5-3c-1.1-0.7-2.8-1.9-6.5-1.9c-5.3,0-9.7,2.8-9.7,8.3
	C137.9,296.4,141.9,298.9,147.4,298.9z"/>
<path class="st1" d="M167.2,291.2c0.4-0.5,1.3-1.1,2.4-1.1c1.5,0,2.4,0.7,2.4,2.7v5.8h3.8v-6.7c0-0.2,0-0.5,0-0.8
	c0.4-0.4,1.3-1,2.5-1c1.5,0,2.4,0.7,2.4,2.7v5.8h3.9V292c0-3.5-1.9-5-4.9-5c-2.3,0-3.8,1.1-4.5,1.9c-0.8-1.3-2.2-1.9-4-1.9
	c-2.2,0-3.5,1-4,1.6h0v-1.3h-3.7v11.4h3.8L167.2,291.2L167.2,291.2z"/>
<path class="st1" d="M192.1,291.9c-3.4,0-5.6,1.2-5.6,3.5c0,2.2,1.4,3.5,4,3.5c2.6,0,3.7-1.1,4-1.6h0v1.3h3.6V292
	c0-3-1.6-5.1-5.7-5.1c-3.2,0-5,1.2-5.9,1.8l1.2,2.5c0.6-0.5,2-1.3,4-1.3c1.9,0,2.6,0.7,2.6,1.9v0.1
	C194.2,292,193.3,291.9,192.1,291.9z M194.4,295.1c-0.2,0.3-0.9,1-2.5,1c-1.1,0-1.6-0.4-1.6-1s0.6-1,2.2-1c0.8,0,1.5,0,1.9,0
	L194.4,295.1L194.4,295.1z"/>
<polygon class="st1" points="209.7,292.7 214.3,287.2 209.6,287.2 206.3,291.2 204.6,291.2 204.6,282.3 200.8,282.3 200.8,298.6 
	204.6,298.6 204.6,294.2 206.3,294.2 209.8,298.6 214.8,298.6 "/>
<path class="st1" d="M220.9,298.9c3.2,0,4.9-1,5.8-1.7l-1.2-2.6c-0.5,0.3-1.6,1.1-3.9,1.1c-2.1,0-3.1-0.8-3.3-2h8.5v-0.9
	c0-3.5-1.8-5.9-5.8-5.9c-3.5,0-6.4,2.1-6.4,6C214.5,296.7,216.9,298.9,220.9,298.9z M220.9,289.8c1.5,0,2.2,0.8,2.2,1.8h-4.8
	C218.5,290.5,219.4,289.8,220.9,289.8z"/>
<path class="st1" d="M232.6,291.3c0.4-0.4,1.3-1.1,2.6-1.1c1.6,0,2.5,0.7,2.5,2.7v5.8h3.9V292c0-3.5-2.1-5-5-5c-2.3,0-3.6,1-4.2,1.6
	h0v-1.3h-3.7v11.4h3.8L232.6,291.3L232.6,291.3z"/>
<path class="st1" d="M263.6,298.6v-16.3h-3.8v6h0c-0.3-0.3-1.3-1.3-3.6-1.3c-3.2,0-5.9,2.1-5.9,6c0,3.9,2.3,6,5.6,6
	c2.7,0,3.7-1.2,4.1-1.6h0v1.3H263.6z M259.7,294.5c-0.3,0.4-1,1.2-2.6,1.2c-1.7,0-2.9-1-2.9-2.9c0-1.8,1.3-2.8,2.9-2.8
	c1.6,0,2.3,0.8,2.6,1.2V294.5z"/>
<path class="st1" d="M271.9,298.9c3.2,0,4.9-1,5.8-1.7l-1.2-2.6c-0.5,0.3-1.6,1.1-3.9,1.1c-2.1,0-3.1-0.8-3.3-2h8.5v-0.9
	c0-3.5-1.8-5.9-5.8-5.9c-3.5,0-6.4,2.1-6.4,6C265.5,296.7,267.9,298.9,271.9,298.9z M271.9,289.8c1.5,0,2.2,0.8,2.2,1.8h-4.8
	C269.5,290.5,270.4,289.8,271.9,289.8z"/>
<path class="st1" d="M285.5,298.9c3.2,0,4.9-1,5.8-1.7l-1.2-2.6c-0.5,0.3-1.6,1.1-3.9,1.1c-2.1,0-3.1-0.8-3.3-2h8.5v-0.9
	c0-3.5-1.8-5.9-5.8-5.9c-3.5,0-6.4,2.1-6.4,6C279.1,296.7,281.5,298.9,285.5,298.9z M285.5,289.8c1.5,0,2.2,0.8,2.2,1.8h-4.8
	C283.1,290.5,284,289.8,285.5,289.8z"/>
<rect x="293.5" y="282.3" class="st1" width="3.8" height="16.3"/>
<path class="st1" d="M315.7,297.3L315.7,297.3l0,1.3h3.7v-11.4h-3.9v7.3c-0.3,0.4-1.3,1.1-2.6,1.1c-1.7,0-2.5-0.7-2.5-2.8v-5.7h-3.8
	v6.6c0,3.5,2.1,5.1,4.9,5.1C314,298.9,315.2,297.9,315.7,297.3z"/>
<rect x="322" y="287.2" class="st1" width="3.8" height="11.4"/>
<rect x="322" y="282.6" class="st1" width="3.9" height="3.2"/>
<path class="st1" d="M329.2,293.5c0,4.3,2,5.3,5.2,5.3c1.2,0,2.1-0.3,2.4-0.4v-3.1c-0.2,0.1-0.7,0.2-1.5,0.2c-1.6,0-2.2-0.5-2.2-2.5
	v-3h3.7v-3H333v-2.5h-3.8v2.5h-1.6v3h1.6V293.5z"/>
<rect x="338.5" y="295.1" class="st1" width="4" height="3.6"/>
<rect x="338.5" y="287.2" class="st1" width="4" height="3.6"/>
<path class="st1" d="M359.2,283.4h-2l-7.1,15.2h2l2.2-4.9h7.7l2.2,4.9h2L359.2,283.4z M355,292.2l3.2-7h0l3.2,7H355z"/>
<path class="st1" d="M371.7,292.4c-2.1-0.7-2.6-1.1-2.6-1.9c0-0.8,0.7-1.2,2-1.2c1.4,0,2.3,0.5,2.8,0.9l0.7-1.5
	c-0.5-0.3-1.6-1-3.5-1c-2.2,0-3.7,1.1-3.7,2.9c0,1.8,1.2,2.6,3.2,3.3c2,0.7,2.5,1.2,2.5,2c0,0.8-0.7,1.4-2.1,1.4
	c-1.6,0-2.6-0.7-3.1-1.1l-0.7,1.6c0.5,0.4,1.7,1.2,3.8,1.2c2.5,0,3.9-1.3,3.9-3.2C374.9,294,373.8,293.1,371.7,292.4z"/>
<path class="st1" d="M377.9,295.1c0,3,1.4,3.7,3.3,3.7c0.7,0,1.2-0.2,1.4-0.2V297c-0.2,0.1-0.5,0.2-1,0.2c-1.2,0-1.8-0.4-1.8-2.2
	v-5.5h2.9v-1.5h-2.9v-2.4h-1.8v2.4h-1.5v1.5h1.5V295.1z"/>
<path class="st1" d="M389.9,289.4v-1.7c-2.3,0-3,1-3.5,1.9h0v-1.7h-1.8v10.7h1.8v-7.4c0.5-1.1,1.5-1.9,3-1.9H389.9z"/>
<path class="st1" d="M393.4,294.1v-6.2h-1.8v6.6c0,3.1,1.4,4.4,3.9,4.4c2.3,0,3.2-1,3.5-1.5h0v1.2h1.7v-10.7H399v8
	c-0.5,0.5-1.4,1.3-2.9,1.3C394.2,297.2,393.4,296.4,393.4,294.1z"/>
<path class="st1" d="M419.9,298.6V292c0-3.1-1.5-4.4-3.9-4.4c-2,0-3.3,1-3.8,1.7c-0.6-1.1-1.8-1.7-3.2-1.7c-1.8,0-3,0.9-3.4,1.5h0
	v-1.2h-1.8v10.7h1.8v-8c0.5-0.5,1.4-1.4,2.8-1.4c1.6,0,2.6,0.9,2.6,3.1v6.2h1.8V292c0-0.5,0-1-0.1-1.5c0.6-0.6,1.5-1.3,2.9-1.3
	c1.7,0,2.6,0.9,2.6,3.1v6.2H419.9z"/>
<path class="st1" d="M440.4,297.4l-0.7-1.5c-0.5,0.4-1.8,1.3-4.3,1.3c-3.3,0-5.6-1.9-5.6-6.2c0-4.2,2.7-6.1,5.8-6.1
	c2.3,0,3.3,0.8,4,1.3l0.8-1.5c-0.8-0.5-1.9-1.5-4.8-1.5c-3.8,0-7.7,2.4-7.7,7.9c0,5.5,3.2,7.8,7.3,7.8
	C438.3,298.9,439.8,297.8,440.4,297.4z"/>
<path class="st1" d="M446.6,287.6c-2.8,0-5.2,1.8-5.2,5.6c0,3.8,2.4,5.6,5.2,5.6c2.8,0,5.2-1.8,5.2-5.6
	C451.8,289.4,449.4,287.6,446.6,287.6z M446.6,297.2c-1.9,0-3.3-1.2-3.3-4c0-2.7,1.4-4,3.3-4c1.9,0,3.3,1.3,3.3,4
	C449.9,296,448.5,297.2,446.6,297.2z"/>
<rect x="454.2" y="283" class="st1" width="1.8" height="15.6"/>
<rect x="459.2" y="283" class="st1" width="1.8" height="15.6"/>
<path class="st1" d="M468.5,298.9c2.5,0,3.7-1,4.2-1.5l-0.7-1.4c-0.3,0.3-1.4,1.1-3.2,1.1c-2.2,0-3.3-1.1-3.5-3.4h7.5v-1
	c0-3.5-1.6-5.2-4.4-5.2c-2.8,0-4.9,2-4.9,5.6C463.5,297.1,465.5,298.9,468.5,298.9z M468.4,289.2c1.8,0,2.6,1.1,2.7,3h-5.7
	C465.5,290.3,466.7,289.2,468.4,289.2z"/>
<path class="st1" d="M478.9,301.7c-2,0-3-1.1-3.4-1.5l-0.8,1.5c0.6,0.5,1.7,1.6,4.2,1.6c3.8,0,5.4-1.8,5.4-5.6v-9.8h-1.7v1.2h0
	c-0.4-0.5-1.2-1.5-3.3-1.5c-2.4,0-4.7,1.8-4.7,5.7c0,3.8,2,5.6,4.5,5.6c2.2,0,3-0.9,3.3-1.2h0v0.4
	C482.4,300.5,481.5,301.7,478.9,301.7z M479.6,297.2c-1.8,0-3.2-1.2-3.2-4c0-2.8,1.5-4,3.3-4c1.6,0,2.3,0.9,2.8,1.4v5.2
	C482,296.4,481.2,297.2,479.6,297.2z"/>
<path class="st1" d="M491.6,298.9c2.5,0,3.7-1,4.2-1.5l-0.7-1.4c-0.3,0.3-1.4,1.1-3.2,1.1c-2.2,0-3.3-1.1-3.5-3.4h7.5v-1
	c0-3.5-1.6-5.2-4.4-5.2c-2.8,0-4.9,2-4.9,5.6C486.5,297.1,488.6,298.9,491.6,298.9z M491.4,289.2c1.8,0,2.6,1.1,2.7,3h-5.7
	C488.5,290.3,489.8,289.2,491.4,289.2z"/>
<path class="st1" d="M506.2,289.2c-1.6,0-2.7,1.1-2.7,2.8s1.1,2.8,2.7,2.8c1.6,0,2.7-1.1,2.7-2.8S507.8,289.2,506.2,289.2z"/>
<path class="st1" d="M531.6,290.9c0-5.2-3.3-7.4-9-7.4h-4.5v15.2h4.5C528.3,298.6,531.6,296.1,531.6,290.9z M522.6,296.9h-2.7v-11.8
	h2.7c4.5,0,7.1,1.8,7.1,5.8C529.7,295.1,527.2,296.9,522.6,296.9z"/>
<path class="st1" d="M543.1,298.6v-10.7h-1.8v8c-0.5,0.5-1.4,1.3-2.9,1.3c-1.8,0-2.6-0.8-2.6-3.1v-6.2h-1.8v6.6
	c0,3.1,1.4,4.4,3.9,4.4c2.3,0,3.2-1,3.5-1.5h0v1.2H543.1z"/>
<rect x="546.1" y="283" class="st1" width="1.8" height="15.6"/>
<path class="st1" d="M555.5,287.6c-2.8,0-5.2,1.8-5.2,5.6c0,3.8,2.4,5.6,5.2,5.6c2.8,0,5.2-1.8,5.2-5.6
	C560.7,289.4,558.3,287.6,555.5,287.6z M555.5,297.2c-1.9,0-3.3-1.2-3.3-4c0-2.7,1.4-4,3.3-4c1.9,0,3.3,1.3,3.3,4
	C558.9,296,557.5,297.2,555.5,297.2z"/>
<path class="st1" d="M568.3,287.6c-2.1,0-3.1,1-3.6,1.5h0v-1.2H563v10.7h1.8v-8c0.5-0.5,1.5-1.4,3-1.4c1.8,0,2.6,0.9,2.6,3.1v6.2
	h1.8V292C572.2,289,570.8,287.6,568.3,287.6z"/>
<path class="st1" d="M592.7,297.4l-0.7-1.5c-0.5,0.4-1.8,1.3-4.3,1.3c-3.3,0-5.6-1.9-5.6-6.2c0-4.2,2.7-6.1,5.8-6.1
	c2.3,0,3.3,0.8,4,1.3l0.8-1.5c-0.8-0.5-1.9-1.5-4.8-1.5c-3.8,0-7.7,2.4-7.7,7.9c0,5.5,3.2,7.8,7.3,7.8
	C590.7,298.9,592.2,297.8,592.7,297.4z"/>
<path class="st1" d="M604.1,293.3c0-3.8-2.4-5.6-5.2-5.6c-2.8,0-5.2,1.8-5.2,5.6c0,3.8,2.4,5.6,5.2,5.6
	C601.7,298.9,604.1,297.1,604.1,293.3z M598.9,297.2c-1.9,0-3.3-1.2-3.3-4c0-2.7,1.4-4,3.3-4c1.9,0,3.3,1.3,3.3,4
	C602.3,296,600.9,297.2,598.9,297.2z"/>
<rect x="606.5" y="283" class="st1" width="1.8" height="15.6"/>
<rect x="611.6" y="283" class="st1" width="1.8" height="15.6"/>
<path class="st1" d="M615.8,293.2c0,3.9,2,5.7,5.1,5.7c2.5,0,3.7-1,4.2-1.5l-0.7-1.4c-0.3,0.3-1.4,1.1-3.2,1.1
	c-2.2,0-3.3-1.1-3.5-3.4h7.5v-1c0-3.5-1.6-5.2-4.4-5.2C618,287.6,615.8,289.6,615.8,293.2z M620.7,289.2c1.8,0,2.6,1.1,2.7,3h-5.7
	C617.8,290.3,619.1,289.2,620.7,289.2z"/>
<path class="st1" d="M631.4,298.9c2.2,0,3-0.9,3.3-1.2h0v0.4c0,2.4-0.9,3.6-3.6,3.6c-2,0-3-1.1-3.4-1.5l-0.8,1.5
	c0.6,0.5,1.7,1.6,4.2,1.6c3.8,0,5.4-1.8,5.4-5.6v-9.8h-1.7v1.2h0c-0.4-0.5-1.2-1.5-3.3-1.5c-2.4,0-4.7,1.8-4.7,5.7
	C626.8,297.2,628.8,298.9,631.4,298.9z M632,289.3c1.6,0,2.3,0.9,2.8,1.4v5.2c-0.4,0.5-1.2,1.4-2.9,1.4c-1.8,0-3.2-1.2-3.2-4
	C628.7,290.4,630.2,289.3,632,289.3z"/>
<path class="st1" d="M643.9,298.9c2.5,0,3.7-1,4.2-1.5l-0.7-1.4c-0.3,0.3-1.4,1.1-3.2,1.1c-2.2,0-3.3-1.1-3.5-3.4h7.5v-1
	c0-3.5-1.6-5.2-4.4-5.2c-2.8,0-4.9,2-4.9,5.6C638.9,297.1,640.9,298.9,643.9,298.9z M643.8,289.2c1.8,0,2.6,1.1,2.7,3h-5.7
	C640.9,290.3,642.1,289.2,643.8,289.2z"/>
<path class="st1" d="M658.5,294.8c1.6,0,2.7-1.1,2.7-2.8s-1.1-2.8-2.7-2.8c-1.6,0-2.7,1.1-2.7,2.8S656.9,294.8,658.5,294.8z"/>
<polygon class="st1" points="673.5,298.6 675.4,298.6 675.4,285.1 681.1,285.1 681.1,283.4 667.8,283.4 667.8,285.1 673.5,285.1 "/>
<path class="st1" d="M679,293.2c0,3.9,2,5.7,5.1,5.7c2.5,0,3.7-1,4.2-1.5l-0.7-1.4c-0.3,0.3-1.4,1.1-3.2,1.1c-2.2,0-3.3-1.1-3.5-3.4
	h7.5v-1c0-3.5-1.6-5.2-4.4-5.2C681.2,287.6,679,289.6,679,293.2z M683.9,289.2c1.8,0,2.6,1.1,2.7,3h-5.7
	C681,290.3,682.2,289.2,683.9,289.2z"/>
<path class="st1" d="M695.6,289.3c1.3,0,2,0.4,2.5,0.8l0.7-1.4c-0.6-0.5-1.5-1-3.3-1c-2.8,0-5.5,1.7-5.5,5.6c0,3.9,2.1,5.6,5.2,5.6
	c1.9,0,3-0.6,3.5-1l-0.6-1.5c-0.4,0.3-1.3,0.8-2.8,0.8c-2.1,0-3.6-1.2-3.6-4C691.8,290.4,693.6,289.3,695.6,289.3z"/>
<path class="st1" d="M702.6,290.6c0.5-0.5,1.5-1.4,3-1.4c1.8,0,2.6,0.9,2.6,3.2v6.2h1.8v-6.6c0-3.1-1.5-4.4-3.9-4.4
	c-2,0-3,0.9-3.5,1.3h0v-6h-1.8v15.6h1.8L702.6,290.6L702.6,290.6z"/>
<path class="st1" d="M714.8,290.6c0.5-0.5,1.5-1.4,3-1.4c1.8,0,2.6,0.9,2.6,3.1v6.2h1.8V292c0-3.1-1.5-4.4-3.9-4.4
	c-2.1,0-3.1,1-3.6,1.5h0v-1.2h-1.8v10.7h1.8L714.8,290.6L714.8,290.6z"/>
<path class="st1" d="M729.6,287.6c-2.8,0-5.2,1.8-5.2,5.6c0,3.8,2.4,5.6,5.2,5.6c2.8,0,5.2-1.8,5.2-5.6
	C734.8,289.4,732.4,287.6,729.6,287.6z M729.6,297.2c-1.9,0-3.3-1.2-3.3-4c0-2.7,1.4-4,3.3-4c1.9,0,3.3,1.3,3.3,4
	C732.9,296,731.5,297.2,729.6,297.2z"/>
<polygon class="st1" points="741.5,298.6 745.8,287.9 743.9,287.9 740.8,296.2 740.7,296.2 737.6,287.9 735.6,287.9 739.9,298.6 "/>
<path class="st1" d="M755.2,298.6v-6.4c0-2.9-1.2-4.5-4.1-4.5c-2.3,0-3.6,1-4.2,1.7l0.8,1.2c0.5-0.5,1.5-1.3,3.2-1.3
	c1.8,0,2.5,0.9,2.5,2.9v0.3c-0.4,0-1.1-0.1-2-0.1c-3,0-4.7,1.1-4.7,3.3c0,1.9,1.1,3.2,3.4,3.2c2.2,0,3-1,3.3-1.5h0v1.2H755.2z
	 M753.4,296c-0.3,0.4-1.1,1.3-2.9,1.3c-1.3,0-1.9-0.6-1.9-1.7c0-1.1,1-1.7,3-1.7c0.8,0,1.4,0,1.8,0.1V296z"/>
<path class="st1" d="M775.7,297.4l-0.7-1.5c-0.5,0.4-1.8,1.3-4.3,1.3c-3.3,0-5.6-1.9-5.6-6.2c0-4.2,2.7-6.1,5.8-6.1
	c2.3,0,3.3,0.8,4,1.3l0.8-1.5c-0.8-0.5-1.9-1.5-4.8-1.5c-3.8,0-7.7,2.4-7.7,7.9c0,5.5,3.2,7.8,7.3,7.8
	C773.6,298.9,775.1,297.8,775.7,297.4z"/>
<path class="st1" d="M781.9,298.9c2.8,0,5.2-1.8,5.2-5.6c0-3.8-2.4-5.6-5.2-5.6c-2.8,0-5.2,1.8-5.2,5.6
	C776.8,297.1,779.1,298.9,781.9,298.9z M781.9,289.3c1.9,0,3.3,1.3,3.3,4c0,2.7-1.4,4-3.3,4c-1.9,0-3.3-1.2-3.3-4
	C778.6,290.6,780.1,289.3,781.9,289.3z"/>
<rect x="789.5" y="283" class="st1" width="1.8" height="15.6"/>
<rect x="794.5" y="283" class="st1" width="1.8" height="15.6"/>
<path class="st1" d="M807.4,296.1c-0.3,0.3-1.4,1.1-3.2,1.1c-2.2,0-3.3-1.1-3.5-3.4h7.5v-1c0-3.5-1.6-5.2-4.4-5.2
	c-2.8,0-4.9,2-4.9,5.6c0,3.9,2.1,5.7,5.1,5.7c2.5,0,3.7-1,4.2-1.5L807.4,296.1z M803.7,289.2c1.8,0,2.6,1.1,2.7,3h-5.7
	C800.8,290.3,802,289.2,803.7,289.2z"/>
<path class="st1" d="M814.4,298.9c2.2,0,3-0.9,3.3-1.2h0v0.4c0,2.4-0.9,3.6-3.6,3.6c-2,0-3-1.1-3.4-1.5l-0.8,1.5
	c0.6,0.5,1.7,1.6,4.2,1.6c3.8,0,5.4-1.8,5.4-5.6v-9.8h-1.7v1.2h0c-0.4-0.5-1.2-1.5-3.3-1.5c-2.4,0-4.7,1.8-4.7,5.7
	C809.8,297.2,811.8,298.9,814.4,298.9z M815,289.3c1.6,0,2.3,0.9,2.8,1.4v5.2c-0.4,0.5-1.2,1.4-2.9,1.4c-1.8,0-3.2-1.2-3.2-4
	C811.7,290.4,813.2,289.3,815,289.3z"/>
<path class="st1" d="M830.4,296.1c-0.3,0.3-1.4,1.1-3.2,1.1c-2.2,0-3.3-1.1-3.5-3.4h7.5v-1c0-3.5-1.6-5.2-4.4-5.2
	c-2.8,0-4.9,2-4.9,5.6c0,3.9,2.1,5.7,5.1,5.7c2.5,0,3.7-1,4.2-1.5L830.4,296.1z M826.7,289.2c1.8,0,2.6,1.1,2.7,3h-5.7
	C823.8,290.3,825.1,289.2,826.7,289.2z"/>
<path class="st1" d="M849.9,292c0-1.7-1.1-2.8-2.7-2.8c-1.6,0-2.7,1.1-2.7,2.8s1.1,2.8,2.7,2.8S849.9,293.7,849.9,292z"/>
<polygon class="st1" points="868.4,296.9 860.2,296.9 860.2,283.4 858.4,283.4 858.4,298.6 868.4,298.6 "/>
<path class="st1" d="M877.2,296.1c-0.3,0.3-1.4,1.1-3.2,1.1c-2.2,0-3.3-1.1-3.5-3.4h7.5v-1c0-3.5-1.6-5.2-4.4-5.2
	c-2.8,0-4.9,2-4.9,5.6c0,3.9,2.1,5.7,5.1,5.7c2.5,0,3.7-1,4.2-1.5L877.2,296.1z M873.5,289.2c1.8,0,2.6,1.1,2.7,3h-5.7
	C870.7,290.3,871.9,289.2,873.5,289.2z"/>
<path class="st1" d="M888.2,296.1c-0.3,0.3-1.4,1.1-3.2,1.1c-2.2,0-3.3-1.1-3.5-3.4h7.5v-1c0-3.5-1.6-5.2-4.4-5.2
	c-2.8,0-4.9,2-4.9,5.6c0,3.9,2.1,5.7,5.1,5.7c2.5,0,3.7-1,4.2-1.5L888.2,296.1z M884.5,289.2c1.8,0,2.6,1.1,2.7,3h-5.7
	C881.6,290.3,882.9,289.2,884.5,289.2z"/>
<path class="st1" d="M893,289.6L893,289.6l0-1.7h-1.8v10.7h1.8v-7.4c0.5-1.1,1.4-1.9,3-1.9h0.4v-1.7
	C894.2,287.7,893.4,288.7,893,289.6z"/>
<path class="st1" d="M900.1,297.7L900.1,297.7c0.4,0.4,1.2,1.2,3.1,1.2c2.7,0,4.7-1.9,4.7-5.8c0-3.5-1.8-5.4-4.4-5.4
	c-2.1,0-3.1,1-3.5,1.5h0v-1.2h-1.8V303h1.8L900.1,297.7L900.1,297.7z M900.1,290.7c0.4-0.5,1.4-1.4,2.9-1.4c1.9,0,3.1,1.3,3.1,3.9
	c0,2.8-1.2,4-3.2,4c-1.5,0-2.3-0.8-2.8-1.4V290.7z"/>
<path class="st1" d="M914.5,292.4c-3,0-4.7,1.1-4.7,3.3c0,1.9,1.1,3.2,3.4,3.2c2.2,0,3-1,3.3-1.5h0v1.2h1.7v-6.4
	c0-2.9-1.2-4.5-4.1-4.5c-2.3,0-3.6,1-4.2,1.7l0.8,1.2c0.5-0.5,1.5-1.3,3.2-1.3c1.8,0,2.5,0.9,2.5,2.9v0.3
	C916.1,292.5,915.4,292.4,914.5,292.4z M916.5,296c-0.3,0.4-1.1,1.3-2.9,1.3c-1.3,0-1.9-0.6-1.9-1.7c0-1.1,1-1.7,3-1.7
	c0.8,0,1.4,0,1.8,0.1V296z"/>
<path class="st1" d="M923,291.2c0.5-1.1,1.4-1.9,3-1.9h0.4v-1.7c-2.3,0-3,1-3.4,1.9h0v-1.7h-1.8v10.7h1.8L923,291.2L923,291.2z"/>
<polygon class="st1" points="930.1,293.8 931.4,293.8 935.3,298.6 937.6,298.6 933.1,293 937.2,287.9 935,287.9 931.6,292.2 
	930.1,292.2 930.1,283 928.3,283 928.3,298.6 930.1,298.6 "/>
<path class="st1" d="M953.8,293.7l1.8,4.9h2l-5.9-15.2h-1.9l-6,15.2h1.9l1.8-4.9H953.8z M950.6,285.4L950.6,285.4l2.6,6.8h-5.1
	L950.6,285.4z"/>
<path class="st1" d="M961.2,289.6L961.2,289.6l0-1.7h-1.8v10.7h1.8v-7.4c0.5-1.1,1.4-1.9,3-1.9h0.4v-1.7
	C962.4,287.7,961.6,288.7,961.2,289.6z"/>
<path class="st1" d="M973.8,292.4v6.2h1.8V292c0-3.1-1.4-4.4-3.9-4.4c-2.1,0-3.1,1-3.6,1.5h0v-1.2h-1.8v10.7h1.8v-8
	c0.5-0.5,1.5-1.4,2.9-1.4C973,289.3,973.8,290.2,973.8,292.4z"/>
<path class="st1" d="M980.5,290.6c0.5-0.5,1.5-1.4,2.9-1.4c1.8,0,2.6,0.9,2.6,3.2v6.2h1.8v-6.6c0-3.1-1.5-4.4-3.9-4.4
	c-2,0-3,0.9-3.5,1.3h0v-6h-1.8v15.6h1.8L980.5,290.6L980.5,290.6z"/>
<path class="st1" d="M999.5,297.4l-0.7-1.4c-0.3,0.3-1.4,1.1-3.2,1.1c-2.2,0-3.3-1.1-3.5-3.4h7.5v-1c0-3.5-1.6-5.2-4.4-5.2
	c-2.8,0-4.9,2-4.9,5.6c0,3.9,2.1,5.7,5.1,5.7C997.7,298.9,999,297.9,999.5,297.4z M995.1,289.2c1.8,0,2.6,1.1,2.7,3H992
	C992.2,290.3,993.4,289.2,995.1,289.2z"/>
<path class="st1" d="M1016.1,292.4v6.2h1.8V292c0-3.1-1.5-4.4-3.9-4.4c-2.1,0-3.3,1-3.8,1.7c-0.6-1.1-1.8-1.7-3.2-1.7
	c-1.8,0-2.9,0.9-3.4,1.5h0v-1.2h-1.8v10.7h1.8v-8c0.5-0.5,1.4-1.4,2.8-1.4c1.6,0,2.6,0.9,2.6,3.1v6.2h1.8V292c0-0.5,0-1-0.1-1.5
	c0.6-0.6,1.5-1.3,2.9-1.3C1015.2,289.3,1016.1,290.2,1016.1,292.4z"/>
<path class="st1" d="M1028.9,289.2c-1.6,0-2.7,1.1-2.7,2.8s1.1,2.8,2.7,2.8c1.6,0,2.7-1.1,2.7-2.8S1030.5,289.2,1028.9,289.2z"/>
<polygon class="st1" points="1050.7,298.6 1052.5,298.6 1052.5,283.4 1050.7,283.4 1050.7,290 1041.9,290 1041.9,283.4 
	1040.1,283.4 1040.1,298.6 1041.9,298.6 1041.9,291.6 1050.7,291.6 "/>
<path class="st1" d="M1059.9,287.6c-2.8,0-4.9,2-4.9,5.6c0,3.9,2.1,5.7,5.1,5.7c2.5,0,3.7-1,4.2-1.5l-0.7-1.4
	c-0.3,0.3-1.4,1.1-3.2,1.1c-2.2,0-3.3-1.1-3.5-3.4h7.5v-1C1064.3,289.3,1062.8,287.6,1059.9,287.6z M1056.9,292.3c0.2-2,1.4-3,3-3
	c1.8,0,2.6,1.1,2.7,3H1056.9z"/>
<path class="st1" d="M1068.9,285.5h-1.8v2.4h-1.5v1.5h1.5v5.7c0,3,1.4,3.7,3.3,3.7c0.7,0,1.2-0.2,1.4-0.2V297
	c-0.2,0.1-0.5,0.2-1,0.2c-1.2,0-1.8-0.4-1.8-2.2v-5.5h2.9v-1.5h-2.9L1068.9,285.5L1068.9,285.5z"/>
<path class="st1" d="M1084.4,283.4h-4.6v15.2h1.8v-5.4h2.7c4.2,0,6.4-1.8,6.4-5C1090.8,285,1088.8,283.4,1084.4,283.4z
	 M1084.4,291.6h-2.7v-6.5h2.7c3.1,0,4.5,1.1,4.5,3.2C1088.9,290.3,1087.6,291.6,1084.4,291.6z"/>
<path class="st1" d="M1096.9,287.6c-2.8,0-4.9,2-4.9,5.6c0,3.9,2.1,5.7,5.1,5.7c2.5,0,3.7-1,4.2-1.5l-0.7-1.4
	c-0.3,0.3-1.4,1.1-3.2,1.1c-2.2,0-3.3-1.1-3.5-3.4h7.5v-1C1101.2,289.3,1099.7,287.6,1096.9,287.6z M1093.8,292.3c0.2-2,1.4-3,3-3
	c1.8,0,2.6,1.1,2.7,3H1093.8z"/>
<path class="st1" d="M1105.3,289.6L1105.3,289.6l0-1.7h-1.8v10.7h1.8v-7.4c0.5-1.1,1.4-1.9,3-1.9h0.4v-1.7
	C1106.5,287.7,1105.8,288.7,1105.3,289.6z"/>
<path class="st1" d="M1112.4,289.6L1112.4,289.6l0-1.7h-1.8v10.7h1.8v-7.4c0.5-1.1,1.4-1.9,3-1.9h0.4v-1.7
	C1113.5,287.7,1112.8,288.7,1112.4,289.6z"/>
<path class="st1" d="M1121.7,287.6c-2.8,0-5.2,1.8-5.2,5.6c0,3.8,2.4,5.6,5.2,5.6c2.8,0,5.2-1.8,5.2-5.6
	C1126.8,289.4,1124.5,287.6,1121.7,287.6z M1121.7,297.2c-1.9,0-3.3-1.2-3.3-4c0-2.7,1.4-4,3.3-4c1.9,0,3.3,1.3,3.3,4
	C1125,296,1123.6,297.2,1121.7,297.2z"/>
<path class="st1" d="M1134.5,287.6c-2.1,0-3.1,1-3.6,1.5h0v-1.2h-1.8v10.7h1.8v-8c0.5-0.5,1.5-1.4,2.9-1.4c1.8,0,2.6,0.9,2.6,3.1
	v6.2h1.8V292C1138.3,289,1136.9,287.6,1134.5,287.6z"/>
<polygon class="st1" points="1159.1,285.1 1164.9,285.1 1164.9,298.6 1166.7,298.6 1166.7,285.1 1172.4,285.1 1172.4,283.4 
	1159.1,283.4 "/>
<path class="st1" d="M1179.4,287.6c-2,0-3,0.9-3.5,1.3h0v-6h-1.8v15.6h1.8v-8c0.5-0.5,1.5-1.4,2.9-1.4c1.8,0,2.6,0.9,2.6,3.2v6.2
	h1.8v-6.6C1183.3,289,1181.7,287.6,1179.4,287.6z"/>
<path class="st1" d="M1190.7,287.6c-2.8,0-5.2,1.8-5.2,5.6c0,3.8,2.4,5.6,5.2,5.6c2.8,0,5.2-1.8,5.2-5.6
	C1195.9,289.4,1193.5,287.6,1190.7,287.6z M1190.7,297.2c-1.9,0-3.3-1.2-3.3-4c0-2.7,1.4-4,3.3-4c1.9,0,3.3,1.3,3.3,4
	C1194,296,1192.6,297.2,1190.7,297.2z"/>
<path class="st1" d="M1210.4,287.6c-2.1,0-3.3,1-3.8,1.7c-0.6-1.1-1.8-1.7-3.2-1.7c-1.8,0-2.9,0.9-3.4,1.5h0v-1.2h-1.8v10.7h1.8v-8
	c0.5-0.5,1.4-1.4,2.8-1.4c1.6,0,2.6,0.9,2.6,3.1v6.2h1.8V292c0-0.5,0-1-0.1-1.5c0.6-0.6,1.5-1.3,2.9-1.3c1.7,0,2.6,0.9,2.6,3.1v6.2
	h1.8V292C1214.3,288.9,1212.9,287.6,1210.4,287.6z"/>
<path class="st1" d="M1221.2,287.6c-2.3,0-3.6,1-4.2,1.7l0.8,1.2c0.5-0.5,1.5-1.3,3.2-1.3c1.8,0,2.5,0.9,2.5,2.9v0.3
	c-0.4,0-1.1-0.1-2-0.1c-3,0-4.7,1.1-4.7,3.3c0,1.9,1.1,3.2,3.4,3.2c2.2,0,3-1,3.3-1.5h0v1.2h1.7v-6.4
	C1225.3,289.3,1224,287.6,1221.2,287.6z M1223.5,296c-0.3,0.4-1.1,1.3-2.9,1.3c-1.3,0-1.9-0.6-1.9-1.7c0-1.1,1-1.7,3-1.7
	c0.8,0,1.4,0,1.8,0.1V296z"/>
<path class="st1" d="M1232,292.4c-2.1-0.7-2.6-1.1-2.6-1.9c0-0.8,0.7-1.2,2-1.2c1.4,0,2.3,0.5,2.8,0.9l0.7-1.5c-0.5-0.3-1.6-1-3.5-1
	c-2.2,0-3.7,1.1-3.7,2.9c0,1.8,1.2,2.6,3.2,3.3c2,0.7,2.5,1.2,2.5,2c0,0.8-0.7,1.4-2.1,1.4c-1.6,0-2.6-0.7-3.1-1.1l-0.7,1.6
	c0.6,0.4,1.7,1.2,3.8,1.2c2.5,0,3.9-1.3,3.9-3.2C1235.2,294,1234.1,293.1,1232,292.4z"/>
<path class="st1" d="M1247.2,287.6c-2.3,0-3.6,1-4.2,1.7l0.8,1.2c0.5-0.5,1.5-1.3,3.2-1.3c1.8,0,2.5,0.9,2.5,2.9v0.3
	c-0.4,0-1.1-0.1-2-0.1c-3,0-4.7,1.1-4.7,3.3c0,1.9,1.1,3.2,3.4,3.2c2.2,0,3-1,3.3-1.5h0v1.2h1.7v-6.4
	C1251.3,289.3,1250.1,287.6,1247.2,287.6z M1249.5,296c-0.3,0.4-1.1,1.3-2.9,1.3c-1.3,0-1.9-0.6-1.9-1.7c0-1.1,1-1.7,3-1.7
	c0.8,0,1.4,0,1.8,0.1V296z"/>
<polygon class="st1" points="1272.1,283.4 1269.8,283.4 1263.9,290 1262,290 1262,283.4 1260.2,283.4 1260.2,298.6 1262,298.6 
	1262,291.6 1263.9,291.6 1270.2,298.6 1272.7,298.6 1265.5,290.8 "/>
<path class="st1" d="M1277.8,287.6c-2.8,0-4.9,2-4.9,5.6c0,3.9,2.1,5.7,5.1,5.7c2.5,0,3.7-1,4.2-1.5l-0.7-1.4
	c-0.3,0.3-1.4,1.1-3.2,1.1c-2.2,0-3.3-1.1-3.5-3.4h7.5v-1C1282.1,289.3,1280.6,287.6,1277.8,287.6z M1274.7,292.3c0.2-2,1.4-3,3-3
	c1.8,0,2.6,1.1,2.7,3H1274.7z"/>
<path class="st1" d="M1296.7,287.6c-2,0-3.3,1-3.8,1.7c-0.6-1.1-1.8-1.7-3.2-1.7c-1.8,0-3,0.9-3.4,1.5h0v-1.2h-1.8v10.7h1.8v-8
	c0.5-0.5,1.4-1.4,2.8-1.4c1.6,0,2.6,0.9,2.6,3.1v6.2h1.8V292c0-0.5,0-1-0.1-1.5c0.6-0.6,1.5-1.3,2.9-1.3c1.7,0,2.6,0.9,2.6,3.1v6.2
	h1.8V292C1300.6,288.9,1299.1,287.6,1296.7,287.6z"/>
<path class="st1" d="M1308.8,287.6c-2.1,0-3.1,1-3.5,1.5h0v-1.2h-1.8V303h1.8v-5.3h0c0.4,0.4,1.1,1.2,3.1,1.2c2.7,0,4.7-1.9,4.7-5.8
	C1313.2,289.5,1311.4,287.6,1308.8,287.6z M1308.1,297.2c-1.5,0-2.3-0.8-2.8-1.4v-5.2c0.4-0.5,1.4-1.4,2.9-1.4
	c1.9,0,3.1,1.3,3.1,3.9C1311.3,295.9,1310.1,297.2,1308.1,297.2z"/>
<rect x="1315.7" y="283.9" class="st1" width="1.9" height="2.1"/>
<rect x="1315.7" y="287.9" class="st1" width="1.8" height="10.7"/>
<path class="st1" d="M1324.4,292.4c-2.1-0.7-2.6-1.1-2.6-1.9c0-0.8,0.7-1.2,2-1.2c1.4,0,2.3,0.5,2.8,0.9l0.7-1.5
	c-0.5-0.3-1.6-1-3.5-1c-2.2,0-3.7,1.1-3.7,2.9c0,1.8,1.2,2.6,3.2,3.3c2,0.7,2.5,1.2,2.5,2c0,0.8-0.7,1.4-2.1,1.4
	c-1.6,0-2.6-0.7-3.1-1.1l-0.7,1.6c0.6,0.4,1.7,1.2,3.8,1.2c2.5,0,3.9-1.3,3.9-3.2C1327.6,294,1326.5,293.1,1324.4,292.4z"/>
<path class="st1" d="M1342.8,284.8c2.3,0,3.3,0.8,4,1.3l0.8-1.5c-0.8-0.5-1.9-1.5-4.8-1.5c-3.8,0-7.7,2.4-7.7,7.9
	c0,5.5,3.2,7.8,7.3,7.8c3,0,4.5-1.1,5.1-1.5l-0.7-1.5c-0.5,0.4-1.8,1.3-4.3,1.3c-3.3,0-5.6-1.9-5.6-6.2
	C1337,286.7,1339.7,284.8,1342.8,284.8z"/>
<path class="st1" d="M1353.7,287.6c-2.8,0-5.2,1.8-5.2,5.6c0,3.8,2.4,5.6,5.2,5.6c2.8,0,5.2-1.8,5.2-5.6
	C1358.9,289.4,1356.5,287.6,1353.7,287.6z M1353.7,297.2c-1.9,0-3.3-1.2-3.3-4c0-2.7,1.4-4,3.3-4c1.9,0,3.3,1.3,3.3,4
	C1357.1,296,1355.7,297.2,1353.7,297.2z"/>
<rect x="1361.3" y="283" class="st1" width="1.8" height="15.6"/>
<rect x="1366.4" y="283" class="st1" width="1.8" height="15.6"/>
<path class="st1" d="M1375.5,287.6c-2.8,0-4.9,2-4.9,5.6c0,3.9,2.1,5.7,5.1,5.7c2.5,0,3.7-1,4.2-1.5l-0.7-1.4
	c-0.3,0.3-1.4,1.1-3.2,1.1c-2.2,0-3.3-1.1-3.5-3.4h7.5v-1C1379.9,289.3,1378.4,287.6,1375.5,287.6z M1372.5,292.3c0.2-2,1.4-3,3-3
	c1.8,0,2.6,1.1,2.7,3H1372.5z"/>
<path class="st1" d="M1389.7,289.1L1389.7,289.1c-0.4-0.5-1.2-1.5-3.3-1.5c-2.4,0-4.7,1.8-4.7,5.7c0,3.8,2,5.6,4.6,5.6
	c2.2,0,3-0.9,3.3-1.2h0v0.4c0,2.4-0.9,3.6-3.6,3.6c-2,0-3-1.1-3.4-1.5l-0.8,1.5c0.6,0.5,1.7,1.6,4.2,1.6c3.8,0,5.4-1.8,5.4-5.6v-9.8
	h-1.7L1389.7,289.1L1389.7,289.1z M1389.6,295.8c-0.4,0.5-1.2,1.4-2.9,1.4c-1.8,0-3.2-1.2-3.2-4c0-2.8,1.5-4,3.3-4
	c1.6,0,2.3,0.9,2.8,1.4V295.8z"/>
<path class="st1" d="M1398.6,287.6c-2.8,0-4.9,2-4.9,5.6c0,3.9,2,5.7,5.1,5.7c2.5,0,3.7-1,4.2-1.5l-0.7-1.4
	c-0.3,0.3-1.4,1.1-3.2,1.1c-2.2,0-3.3-1.1-3.5-3.4h7.5v-1C1403,289.3,1401.4,287.6,1398.6,287.6z M1395.5,292.3c0.2-2,1.4-3,3-3
	c1.8,0,2.6,1.1,2.7,3H1395.5z"/>
<path class="st1" d="M1414,289.2c-1.6,0-2.7,1.1-2.7,2.8c0,1.7,1.1,2.8,2.7,2.8c1.6,0,2.7-1.1,2.7-2.8
	C1416.7,290.3,1415.6,289.2,1414,289.2z"/>
<polygon class="st1" points="1424.4,285.1 1430.1,285.1 1430.1,298.6 1432,298.6 1432,285.1 1437.7,285.1 1437.7,283.4 
	1424.4,283.4 "/>
<rect x="1439.1" y="287.9" class="st1" width="1.8" height="10.7"/>
<rect x="1439.1" y="283.9" class="st1" width="1.9" height="2.1"/>
<path class="st1" d="M1446.5,285.5h-1.8v2.4h-1.5v1.5h1.5v5.7c0,3,1.4,3.7,3.3,3.7c0.7,0,1.2-0.2,1.4-0.2V297
	c-0.2,0.1-0.5,0.2-1,0.2c-1.2,0-1.8-0.4-1.8-2.2v-5.5h2.9v-1.5h-2.9V285.5z"/>
<path class="st1" d="M1458.8,295.9c-0.5,0.5-1.4,1.3-2.9,1.3c-1.8,0-2.6-0.8-2.6-3.1v-6.2h-1.8v6.6c0,3.1,1.4,4.4,3.9,4.4
	c2.3,0,3.2-1,3.5-1.5h0v1.2h1.8v-10.7h-1.8V295.9z"/>
<path class="st1" d="M1467.3,292.4c-2.1-0.7-2.6-1.1-2.6-1.9c0-0.8,0.7-1.2,2-1.2c1.4,0,2.3,0.5,2.8,0.9l0.7-1.5
	c-0.6-0.3-1.6-1-3.5-1c-2.2,0-3.7,1.1-3.7,2.9c0,1.8,1.2,2.6,3.2,3.3c2,0.7,2.5,1.2,2.5,2c0,0.8-0.7,1.4-2.1,1.4
	c-1.6,0-2.6-0.7-3.1-1.1l-0.7,1.6c0.5,0.4,1.7,1.2,3.8,1.2c2.5,0,3.9-1.3,3.9-3.2C1470.5,294,1469.4,293.1,1467.3,292.4z"/>
<path class="st1" d="M1486.9,290.7L1486.9,290.7c1.6-0.3,2.8-1.4,2.8-3.5c0-2.3-1.7-3.8-5.5-3.8h-5.3v15.2h5.4
	c4.1,0,6.1-1.7,6.1-4.1C1490.4,292.3,1488.9,291,1486.9,290.7z M1480.7,285.1h3.3c2.7,0,3.9,0.7,3.9,2.3c0,1.5-1.2,2.6-3.9,2.6h-3.3
	V285.1z M1484.2,296.9h-3.5v-5.3h3.5c2.9,0,4.3,1,4.3,2.7C1488.5,296,1487.2,296.9,1484.2,296.9z"/>
<path class="st1" d="M1494.5,289.6L1494.5,289.6l0-1.7h-1.8v10.7h1.8v-7.4c0.5-1.1,1.4-1.9,3-1.9h0.4v-1.7
	C1495.7,287.7,1495,288.7,1494.5,289.6z"/>
<path class="st1" d="M1503.3,287.6c-2.3,0-3.6,1-4.2,1.7l0.8,1.2c0.5-0.5,1.5-1.3,3.2-1.3c1.8,0,2.5,0.9,2.5,2.9v0.3
	c-0.4,0-1.1-0.1-2-0.1c-3,0-4.7,1.1-4.7,3.3c0,1.9,1.1,3.2,3.4,3.2c2.2,0,3-1,3.3-1.5h0v1.2h1.7v-6.4
	C1507.4,289.3,1506.2,287.6,1503.3,287.6z M1505.6,296c-0.3,0.4-1.1,1.3-2.9,1.3c-1.3,0-1.9-0.6-1.9-1.7c0-1.1,1-1.7,3-1.7
	c0.8,0,1.4,0,1.8,0.1V296z"/>
<path class="st1" d="M1515.7,287.6c-2.1,0-3.1,1-3.6,1.5h0v-1.2h-1.8v10.7h1.8v-8c0.5-0.5,1.5-1.4,3-1.4c1.8,0,2.6,0.9,2.6,3.1v6.2
	h1.8V292C1519.6,289,1518.1,287.6,1515.7,287.6z"/>
<path class="st1" d="M1529.8,288.9L1529.8,288.9c-0.3-0.3-1.2-1.2-3.1-1.2c-2.6,0-4.8,1.9-4.8,5.6c0,3.8,2,5.6,4.6,5.6
	c2.3,0,3.1-1.1,3.4-1.5h0v1.2h1.7V283h-1.8V288.9z M1529.8,295.9c-0.4,0.5-1.1,1.3-2.9,1.3c-1.8,0-3.2-1.2-3.2-4
	c0-2.7,1.4-3.9,3.3-3.9c1.7,0,2.4,0.9,2.8,1.4V295.9z"/>
<path class="st1" d="M1538.5,292.4c-2.1-0.7-2.6-1.1-2.6-1.9c0-0.8,0.7-1.2,2-1.2c1.4,0,2.3,0.5,2.8,0.9l0.7-1.5
	c-0.6-0.3-1.6-1-3.5-1c-2.2,0-3.7,1.1-3.7,2.9c0,1.8,1.2,2.6,3.2,3.3c2,0.7,2.5,1.2,2.5,2c0,0.8-0.7,1.4-2.1,1.4
	c-1.6,0-2.6-0.7-3.1-1.1l-0.7,1.6c0.5,0.4,1.7,1.2,3.8,1.2c2.5,0,3.9-1.3,3.9-3.2C1541.6,294,1540.5,293.1,1538.5,292.4z"/>
<path class="st1" d="M1556.3,287.6c-2.1,0-3.3,1-3.8,1.7c-0.6-1.1-1.8-1.7-3.2-1.7c-1.8,0-2.9,0.9-3.4,1.5h0v-1.2h-1.8v10.7h1.8v-8
	c0.5-0.5,1.4-1.4,2.8-1.4c1.6,0,2.6,0.9,2.6,3.1v6.2h1.8V292c0-0.5,0-1-0.1-1.5c0.6-0.6,1.5-1.3,2.9-1.3c1.7,0,2.6,0.9,2.6,3.1v6.2
	h1.8V292C1560.2,288.9,1558.7,287.6,1556.3,287.6z"/>
<path class="st1" d="M1567,287.6c-2.3,0-3.6,1-4.2,1.7l0.8,1.2c0.5-0.5,1.5-1.3,3.2-1.3c1.8,0,2.5,0.9,2.5,2.9v0.3
	c-0.4,0-1.1-0.1-2-0.1c-3,0-4.7,1.1-4.7,3.3c0,1.9,1.1,3.2,3.4,3.2c2.2,0,3-1,3.3-1.5h0v1.2h1.7v-6.4
	C1571.1,289.3,1569.9,287.6,1567,287.6z M1569.3,296c-0.3,0.4-1.1,1.3-2.9,1.3c-1.3,0-1.9-0.6-1.9-1.7c0-1.1,1-1.7,3-1.7
	c0.8,0,1.4,0,1.8,0.1V296z"/>
<path class="st1" d="M1586.9,284.8c2.3,0,3.3,0.8,4,1.3l0.8-1.5c-0.8-0.5-1.9-1.5-4.8-1.5c-3.8,0-7.7,2.4-7.7,7.9
	c0,5.5,3.2,7.8,7.3,7.8c3,0,4.5-1.1,5.1-1.5l-0.7-1.5c-0.5,0.4-1.8,1.3-4.3,1.3c-3.3,0-5.6-1.9-5.6-6.2
	C1581.1,286.7,1583.8,284.8,1586.9,284.8z"/>
<path class="st1" d="M1597.8,287.6c-2.8,0-5.2,1.8-5.2,5.6c0,3.8,2.4,5.6,5.2,5.6c2.8,0,5.2-1.8,5.2-5.6
	C1603,289.4,1600.6,287.6,1597.8,287.6z M1597.8,297.2c-1.9,0-3.3-1.2-3.3-4c0-2.7,1.4-4,3.3-4c1.9,0,3.3,1.3,3.3,4
	C1601.1,296,1599.7,297.2,1597.8,297.2z"/>
<rect x="1605.4" y="283" class="st1" width="1.8" height="15.6"/>
<rect x="1610.5" y="283" class="st1" width="1.8" height="15.6"/>
<path class="st1" d="M1619.6,287.6c-2.8,0-4.9,2-4.9,5.6c0,3.9,2.1,5.7,5.1,5.7c2.5,0,3.7-1,4.2-1.5l-0.7-1.4
	c-0.3,0.3-1.4,1.1-3.2,1.1c-2.2,0-3.3-1.1-3.5-3.4h7.5v-1C1624,289.3,1622.4,287.6,1619.6,287.6z M1616.5,292.3c0.2-2,1.4-3,3-3
	c1.8,0,2.6,1.1,2.7,3H1616.5z"/>
<path class="st1" d="M1633.8,289.1L1633.8,289.1c-0.4-0.5-1.2-1.5-3.3-1.5c-2.4,0-4.7,1.8-4.7,5.7c0,3.8,2,5.6,4.6,5.6
	c2.2,0,3-0.9,3.3-1.2h0v0.4c0,2.4-0.9,3.6-3.6,3.6c-2,0-3-1.1-3.4-1.5l-0.8,1.5c0.6,0.5,1.7,1.6,4.2,1.6c3.8,0,5.4-1.8,5.4-5.6v-9.8
	h-1.7L1633.8,289.1L1633.8,289.1z M1633.7,295.8c-0.4,0.5-1.2,1.4-2.9,1.4c-1.8,0-3.2-1.2-3.2-4c0-2.8,1.5-4,3.3-4
	c1.6,0,2.3,0.9,2.8,1.4V295.8z"/>
<path class="st1" d="M1642.7,287.6c-2.8,0-4.9,2-4.9,5.6c0,3.9,2.1,5.7,5.1,5.7c2.5,0,3.7-1,4.2-1.5l-0.7-1.4
	c-0.3,0.3-1.4,1.1-3.2,1.1c-2.2,0-3.3-1.1-3.5-3.4h7.5v-1C1647.1,289.3,1645.5,287.6,1642.7,287.6z M1639.6,292.3c0.2-2,1.4-3,3-3
	c1.8,0,2.6,1.1,2.7,3H1639.6z"/>
<path class="st1" d="M1657.4,289.2c-1.6,0-2.7,1.1-2.7,2.8c0,1.7,1.1,2.8,2.7,2.8c1.6,0,2.7-1.1,2.7-2.8
	C1660.1,290.3,1659,289.2,1657.4,289.2z"/>
<polygon class="st1" points="1681.2,283.4 1678.9,283.4 1673,290 1671.1,290 1671.1,283.4 1669.3,283.4 1669.3,298.6 1671.1,298.6 
	1671.1,291.6 1673,291.6 1679.3,298.6 1681.8,298.6 1674.6,290.8 "/>
<path class="st1" d="M1688.5,287.6c-2.1,0-3.1,1-3.6,1.5h0v-1.2h-1.8v10.7h1.8v-8c0.5-0.5,1.5-1.4,2.9-1.4c1.8,0,2.6,0.9,2.6,3.1
	v6.2h1.8V292C1692.4,289,1691,287.6,1688.5,287.6z"/>
<path class="st1" d="M1699.8,287.6c-2.8,0-5.2,1.8-5.2,5.6c0,3.8,2.4,5.6,5.2,5.6c2.8,0,5.2-1.8,5.2-5.6
	C1705,289.4,1702.6,287.6,1699.8,287.6z M1699.8,297.2c-1.9,0-3.3-1.2-3.3-4c0-2.7,1.4-4,3.3-4c1.9,0,3.3,1.3,3.3,4
	C1703.2,296,1701.8,297.2,1699.8,297.2z"/>
<path class="st1" d="M1711.8,287.6c-2.8,0-5.2,1.8-5.2,5.6c0,3.8,2.4,5.6,5.2,5.6c2.8,0,5.2-1.8,5.2-5.6
	C1717,289.4,1714.6,287.6,1711.8,287.6z M1711.8,297.2c-1.9,0-3.3-1.2-3.3-4c0-2.7,1.4-4,3.3-4c1.9,0,3.3,1.3,3.3,4
	C1715.2,296,1713.7,297.2,1711.8,297.2z"/>
<path class="st1" d="M1724.5,287.6c-2.1,0-3.1,1-3.5,1.5h0v-1.2h-1.8V303h1.8v-5.3h0c0.4,0.4,1.1,1.2,3.1,1.2c2.7,0,4.7-1.9,4.7-5.8
	C1728.9,289.5,1727.1,287.6,1724.5,287.6z M1723.9,297.2c-1.5,0-2.3-0.8-2.8-1.4v-5.2c0.4-0.5,1.4-1.4,2.9-1.4
	c1.9,0,3.1,1.3,3.1,3.9C1727.1,295.9,1725.9,297.2,1723.9,297.2z"/>
<path class="st1" d="M1736.6,287.6c-2.1,0-3.1,1-3.5,1.5h0v-1.2h-1.8V303h1.8v-5.3h0c0.4,0.4,1.1,1.2,3.1,1.2c2.7,0,4.7-1.9,4.7-5.8
	C1741,289.5,1739.1,287.6,1736.6,287.6z M1735.9,297.2c-1.5,0-2.3-0.8-2.8-1.4v-5.2c0.4-0.5,1.4-1.4,2.9-1.4c1.9,0,3.1,1.3,3.1,3.9
	C1739.1,295.9,1737.9,297.2,1735.9,297.2z"/>
<path class="st1" d="M1750.7,295.9c-0.5,0.5-1.4,1.3-2.9,1.3c-1.8,0-2.6-0.8-2.6-3.1v-6.2h-1.8v6.6c0,3.1,1.4,4.4,3.9,4.4
	c2.3,0,3.2-1,3.5-1.5h0v1.2h1.7v-10.7h-1.8L1750.7,295.9L1750.7,295.9z"/>
<path class="st1" d="M1760.8,287.6c-2.1,0-3.1,1-3.6,1.5h0v-1.2h-1.8v10.7h1.8v-8c0.5-0.5,1.5-1.4,2.9-1.4c1.8,0,2.6,0.9,2.6,3.1
	v6.2h1.8V292C1764.6,289,1763.2,287.6,1760.8,287.6z"/>
<path class="st1" d="M1769.9,285.5h-1.8v2.4h-1.5v1.5h1.5v5.7c0,3,1.4,3.7,3.3,3.7c0.7,0,1.2-0.2,1.4-0.2V297
	c-0.2,0.1-0.5,0.2-1,0.2c-1.2,0-1.8-0.4-1.8-2.2v-5.5h2.9v-1.5h-2.9L1769.9,285.5L1769.9,285.5z"/>
<polygon class="st1" points="1792.3,283.4 1778.9,283.4 1778.9,285.1 1784.7,285.1 1784.7,298.6 1786.5,298.6 1786.5,285.1 
	1792.3,285.1 "/>
<path class="st1" d="M1795.1,287.6c-2.8,0-4.9,2-4.9,5.6c0,3.9,2.1,5.7,5.1,5.7c2.5,0,3.7-1,4.2-1.5l-0.7-1.4
	c-0.3,0.3-1.4,1.1-3.2,1.1c-2.2,0-3.3-1.1-3.5-3.4h7.5v-1C1799.5,289.3,1797.9,287.6,1795.1,287.6z M1792,292.3c0.2-2,1.4-3,3-3
	c1.8,0,2.6,1.1,2.7,3H1792z"/>
<path class="st1" d="M1806.8,289.3c1.3,0,2,0.4,2.5,0.8l0.7-1.4c-0.6-0.5-1.5-1-3.3-1c-2.8,0-5.5,1.7-5.5,5.6c0,3.9,2.1,5.6,5.2,5.6
	c1.9,0,3-0.6,3.5-1l-0.6-1.5c-0.4,0.3-1.3,0.8-2.8,0.8c-2.1,0-3.6-1.2-3.6-4C1803,290.4,1804.8,289.3,1806.8,289.3z"/>
<path class="st1" d="M1817.3,287.6c-2,0-3,0.9-3.5,1.3h0v-6h-1.8v15.6h1.8v-8c0.5-0.5,1.5-1.4,2.9-1.4c1.8,0,2.6,0.9,2.6,3.2v6.2
	h1.8v-6.6C1821.2,289,1819.7,287.6,1817.3,287.6z"/>
<path class="st1" d="M1829.5,287.6c-2.1,0-3.1,1-3.6,1.5h0v-1.2h-1.8v10.7h1.8v-8c0.5-0.5,1.5-1.4,2.9-1.4c1.8,0,2.6,0.9,2.6,3.1
	v6.2h1.8V292C1833.3,289,1831.9,287.6,1829.5,287.6z"/>
<rect x="1836.4" y="283.9" class="st1" width="1.9" height="2.1"/>
<rect x="1836.4" y="287.9" class="st1" width="1.8" height="10.7"/>
<path class="st1" d="M1845.6,287.6c-2.8,0-4.9,2-4.9,5.6c0,3.9,2.1,5.7,5.1,5.7c2.5,0,3.7-1,4.2-1.5l-0.7-1.4
	c-0.3,0.3-1.4,1.1-3.2,1.1c-2.2,0-3.3-1.1-3.5-3.4h7.5v-1C1850,289.3,1848.4,287.6,1845.6,287.6z M1842.5,292.3c0.2-2,1.4-3,3-3
	c1.8,0,2.6,1.1,2.7,3H1842.5z"/>
<polygon class="st1" points="1861.3,287.9 1859.1,287.9 1855.7,292.2 1854.1,292.2 1854.1,283 1852.3,283 1852.3,298.6 
	1854.1,298.6 1854.1,293.8 1855.5,293.8 1859.3,298.6 1861.7,298.6 1857.1,293 "/>
<path class="st1" d="M1148.4,289.3c-1.6,0-2.7,1.1-2.7,2.8s1.1,2.8,2.7,2.8c1.6,0,2.7-1.1,2.7-2.8S1150,289.3,1148.4,289.3z"/>
</svg>
